<svg height="512" viewBox="0 0 64 64" width="512" xmlns="http://www.w3.org/2000/svg"><g id="Bank"><path d="m32 7-23.562 13h47.125z" fill="#f1f2f2"/><path d="m19 28v3h-2v15h2v3h2v4h22v-4h2v-3h2v-15h-2v-3h-1v-4h-24v4zm11 .35v-1.35a2 2 0 0 1 4 0v1.35a5.98 5.98 0 0 1 3.643 3.607 1.512 1.512 0 0 1 -1.405 2.043 1.525 1.525 0 0 1 -1.42-1.031 3.015 3.015 0 0 0 -3.83-1.8 2.921 2.921 0 0 0 -1.819 1.82 3.013 3.013 0 0 0 2.882 4.011 5.459 5.459 0 0 1 4.874 2.392 6.117 6.117 0 0 1 -2.925 9.258v1.35a2 2 0 0 1 -4 0v-1.35a5.98 5.98 0 0 1 -3.643-3.607 1.512 1.512 0 0 1 1.405-2.043 1.525 1.525 0 0 1 1.42 1.031 3.014 3.014 0 0 0 3.791 1.813 2.924 2.924 0 0 0 1.858-1.834 3.012 3.012 0 0 0 -2.882-4.01 5.459 5.459 0 0 1 -4.874-2.392 6.117 6.117 0 0 1 2.925-9.258z" fill="#f1f2f2"/><path d="m60.1 18.5-28.1-15.5-28.095 15.5a1.751 1.751 0 0 0 -.905 1.533 1.75 1.75 0 0 0 2.6 1.532l26.4-14.565 26.405 14.568a1.75 1.75 0 0 0 2.595-1.532 1.751 1.751 0 0 0 -.9-1.536z" fill="#0857ab"/><path d="m20 28v-4h-12v4h1 10z" fill="#11c9cc"/><path d="m19 31v-3h-10v3h2 6z" fill="#0857ab"/><path d="m21 49h-2-10-2v4h14z" fill="#11c9cc"/><path d="m19 46h-2-6-2v3h10z" fill="#0857ab"/><path d="m17 31h-6v15h6z" fill="#11c9cc"/><path d="m59 53h-2-14-22-14-2v4h54z" fill="#0857ab"/><path d="m5 57h-2v4h58v-4h-2z" fill="#0857ab"/><path d="m31.949 40a3.012 3.012 0 0 1 2.883 4.01 2.924 2.924 0 0 1 -1.858 1.834 3.014 3.014 0 0 1 -3.791-1.813 1.525 1.525 0 0 0 -1.42-1.031 1.512 1.512 0 0 0 -1.405 2.043 5.98 5.98 0 0 0 3.642 3.607v1.35a2 2 0 0 0 4 0v-1.35a6.117 6.117 0 0 0 2.925-9.258 5.459 5.459 0 0 0 -4.874-2.392 3.013 3.013 0 0 1 -2.883-4.011 2.921 2.921 0 0 1 1.819-1.82 3.015 3.015 0 0 1 3.83 1.8 1.525 1.525 0 0 0 1.42 1.031 1.512 1.512 0 0 0 1.405-2.043 5.98 5.98 0 0 0 -3.642-3.607v-1.35a2 2 0 0 0 -4 0v1.35a6.117 6.117 0 0 0 -2.925 9.258 5.459 5.459 0 0 0 4.874 2.392z" fill="#ff9811"/><path d="m45 28h10 1v-4h-12v4z" fill="#11c9cc"/><path d="m45 31h2 6 2v-3h-10z" fill="#0857ab"/><path d="m43 49v4h14v-4h-2-10z" fill="#11c9cc"/><path d="m45 46v3h10v-3h-2-6z" fill="#0857ab"/><path d="m47 46h6v-15h-6z" fill="#11c9cc"/><circle cx="32" cy="14" fill="#0857ab" r="3"/><path d="m8.438 20-2.438 1.345v2.655h52v-2.655l-2.437-1.345z" fill="#a7a9ac"/><path d="m58 22v-.655l-2.437-1.345h-47.125l-2.438 1.345v.655z" fill="#d1d3d4"/><path d="m5 53h54v2h-54z" fill="#57a4ff"/><path d="m3 57h58v2h-58z" fill="#57a4ff"/><g fill="#d1e7f8"><path d="m14 33a1 1 0 0 0 -1 1v9a1 1 0 0 0 2 0v-9a1 1 0 0 0 -1-1z"/><path d="m50 44a1 1 0 0 0 1-1v-9a1 1 0 0 0 -2 0v9a1 1 0 0 0 1 1z"/></g></g></svg>