<svg id="Capa_1" enable-background="new 0 0 512 512" height="512" viewBox="0 0 512 512" width="512" xmlns="http://www.w3.org/2000/svg" xmlns:xlink="http://www.w3.org/1999/xlink"><linearGradient id="lg1"><stop offset="0" stop-color="#364aff"/><stop offset="1" stop-color="#fc54ff"/></linearGradient><linearGradient id="SVGID_1_" gradientUnits="userSpaceOnUse" x1="74.981" x2="437.019" xlink:href="#lg1" y1="437.019" y2="74.981"/><radialGradient id="SVGID_2_" cx="256" cy="256" gradientUnits="userSpaceOnUse" r="258.6"><stop offset=".095" stop-color="#8d00db" stop-opacity=".66"/><stop offset=".2822" stop-color="#9f0de1" stop-opacity=".523"/><stop offset=".6541" stop-color="#cc30f0" stop-opacity=".252"/><stop offset="1" stop-color="#fc54ff" stop-opacity="0"/></radialGradient><linearGradient id="lg2"><stop offset="0" stop-color="#b31de7"/><stop offset=".3399" stop-color="#cf4ef0"/><stop offset=".7861" stop-color="#f089fb"/><stop offset="1" stop-color="#fda0ff"/></linearGradient><linearGradient id="SVGID_3_" gradientUnits="userSpaceOnUse" x1="-15.278" x2="245.211" xlink:href="#lg2" y1="399.455" y2="138.966"/><linearGradient id="SVGID_4_" gradientUnits="userSpaceOnUse" x1="11.723" x2="490.933" xlink:href="#lg2" y1="696.7" y2="217.49"/><linearGradient id="SVGID_5_" gradientUnits="userSpaceOnUse" x1="-191.657" x2="497.225" xlink:href="#lg2" y1="706.761" y2="17.879"/><linearGradient id="SVGID_6_" gradientUnits="userSpaceOnUse" x1="164.255" x2="377.375" xlink:href="#lg2" y1="375.084" y2="161.964"/><linearGradient id="lg3"><stop offset="0" stop-color="#fc54ff"/><stop offset="1" stop-color="#fda0ff"/></linearGradient><linearGradient id="SVGID_7_" gradientUnits="userSpaceOnUse" x1="44.548" x2="243.771" xlink:href="#lg3" y1="288.711" y2="89.487"/><linearGradient id="SVGID_8_" gradientUnits="userSpaceOnUse" x1="266.638" x2="460.761" xlink:href="#lg3" y1="286.133" y2="92.01"/><linearGradient id="lg4"><stop offset="0" stop-color="#fc54ff"/><stop offset=".4062" stop-color="#fd9bff"/><stop offset="1" stop-color="#fff"/></linearGradient><linearGradient id="SVGID_9_" gradientUnits="userSpaceOnUse" x1="-33.693" x2="285.129" xlink:href="#lg4" y1="366.951" y2="48.129"/><linearGradient id="SVGID_10_" gradientUnits="userSpaceOnUse" x1="190.401" x2="501.06" xlink:href="#lg4" y1="362.37" y2="51.711"/><linearGradient id="SVGID_11_" gradientUnits="userSpaceOnUse" x1="110.177" x2="179.368" xlink:href="#lg1" y1="222.087" y2="152.896"/><linearGradient id="SVGID_12_" gradientUnits="userSpaceOnUse" x1="143.693" x2="212.274" xlink:href="#lg1" y1="221.971" y2="153.39"/><linearGradient id="SVGID_13_" gradientUnits="userSpaceOnUse" x1="51.913" x2="149.329" xlink:href="#lg1" y1="246.207" y2="148.791"/><linearGradient id="SVGID_14_" gradientUnits="userSpaceOnUse" x1="124.791" x2="316.014" xlink:href="#lg4" y1="376.608" y2="185.385"/><linearGradient id="SVGID_15_" gradientUnits="userSpaceOnUse" x1="151.522" x2="242.697" xlink:href="#lg2" y1="349.876" y2="258.701"/><linearGradient id="SVGID_16_" gradientUnits="userSpaceOnUse" x1="167.781" x2="239.214" xlink:href="#lg2" y1="333.632" y2="262.199"/><linearGradient id="SVGID_17_" gradientUnits="userSpaceOnUse" x1="341.196" x2="386.925" xlink:href="#lg1" y1="172.913" y2="127.184"/><linearGradient id="SVGID_18_" gradientUnits="userSpaceOnUse" x1="341.935" x2="388.596" xlink:href="#lg1" y1="249.641" y2="202.981"/><linearGradient id="SVGID_19_" gradientUnits="userSpaceOnUse" x1="380.139" x2="426.012" xlink:href="#lg1" y1="211.552" y2="165.679"/><linearGradient id="SVGID_20_" gradientUnits="userSpaceOnUse" x1="303.316" x2="349.862" xlink:href="#lg1" y1="211.147" y2="164.602"/><linearGradient id="SVGID_21_" gradientUnits="userSpaceOnUse" x1="245.823" x2="439.077" xlink:href="#lg4" y1="377.344" y2="184.09"/><linearGradient id="SVGID_22_" gradientUnits="userSpaceOnUse" x1="273.004" x2="365.147" xlink:href="#lg2" y1="350.327" y2="258.184"/><linearGradient id="SVGID_23_" gradientUnits="userSpaceOnUse" x1="289.431" x2="361.692" xlink:href="#lg2" y1="333.915" y2="261.654"/><g><circle cx="256" cy="256" fill="url(#SVGID_1_)" r="256"/><circle cx="256" cy="256" fill="url(#SVGID_2_)" r="256"/><path d="m60.192 188.5c-1.73 60.376-1.139 120.752 1.773 181.128 1.005 20.049 18.37 36.994 38.406 37.664 5.278.168 10.301-.847 14.831-2.833-3.253-72.248-4.131-144.497-2.635-216.745-17.458.222-34.916.484-52.375.786z" fill="url(#SVGID_3_)"/><path d="m397.432 187.715c1.496 72.248.618 144.497-2.635 216.745 4.529 1.985 9.553 3.001 14.831 2.833 20.036-.67 37.401-17.615 38.406-37.664 2.912-60.376 3.503-120.752 1.773-181.128-17.457-.303-34.916-.565-52.375-.786z" fill="url(#SVGID_4_)"/><path d="m92.551 135.132c-3.344 78.44-3.432 156.879-.266 235.319.607 14.826 10.065 27.86 22.918 34.009 8.092-3.546 14.662-10.205 17.934-19.004 9.628-25.915 19.752-51.993 30.165-78.181 30.807-10.008 61.745-20.222 92.723-30.473 30.295 10.249 60.549 20.461 90.674 30.473 10.413 26.188 20.537 52.266 30.165 78.181 3.271 8.799 9.842 15.458 17.934 19.004 12.854-6.149 22.311-19.183 22.918-34.009 3.166-78.44 3.077-156.879-.266-235.319-108.3-2.843-216.6-2.843-324.899 0z" fill="url(#SVGID_5_)"/><path d="m316.033 307.429c-40.689.164-81.377.164-122.066 0-.1-15.338-.155-30.677-.166-46.015 40.799.017 81.598.017 122.398 0-.011 15.338-.066 30.677-.166 46.015z" fill="url(#SVGID_6_)"/><path d="m60.192 188.5c-1.354 45.374 36.987 82.498 83.623 82.754 46.664.157 84.51-37.709 84.667-84.41-.013-46.69-36.656-84.466-81.982-83.384-45.297 1.16-84.84 39.678-86.308 85.04z" fill="url(#SVGID_7_)"/><path d="m281.518 186.844c.157 46.701 38.003 84.567 84.667 84.41 46.636-.255 84.976-37.38 83.623-82.754-1.469-45.362-41.011-83.88-86.308-85.04-45.325-1.082-81.968 36.694-81.982 83.384z" fill="url(#SVGID_8_)"/><path d="m60.192 188.5c-1.354 45.374 36.987 82.498 83.623 82.754 46.664.157 84.51-37.709 84.667-84.41-.013-46.69-36.656-84.466-81.982-83.384-45.297 1.16-84.84 39.678-86.308 85.04z" fill="url(#SVGID_9_)"/><path d="m281.518 186.844c.157 46.701 38.003 84.567 84.667 84.41 46.636-.255 84.976-37.38 83.623-82.754-1.469-45.362-41.011-83.88-86.308-85.04-45.325-1.082-81.968 36.694-81.982 83.384z" fill="url(#SVGID_10_)"/><path d="m127.702 139.376c-1.02 32.114-1.618 64.228-1.796 96.341-.015 2.8 2.269 5.064 5.099 5.058 8.54-.021 17.079-.039 25.619-.056 2.83-.005 5.13-2.291 5.141-5.106.128-32.279.56-64.557 1.297-96.836.063-2.815-2.141-5.063-4.926-5.02-8.408.132-16.817.28-25.225.446-2.786.056-5.12 2.373-5.209 5.173z" fill="url(#SVGID_11_)"/><path d="m197.998 174.172c-.083 8.524-.153 17.047-.21 25.571-.018 2.825-2.321 5.123-5.144 5.134-10.222.042-20.444.094-30.667.156-5.904-5.91-11.786-11.803-17.641-17.677 6.045-5.991 12.086-11.992 18.119-18 10.17-.106 20.339-.194 30.509-.266 2.809-.018 5.061 2.257 5.034 5.082z" fill="url(#SVGID_12_)"/><path d="m144.337 187.357c-6.045 5.991-12.092 11.971-18.137 17.937-10.222.086-20.444.183-30.667.29-2.823.029-5.072-2.201-5.017-4.982.164-8.394.365-16.787.604-25.181.079-2.781 2.424-5.078 5.232-5.129 10.17-.182 20.339-.346 30.509-.493 5.794 5.831 11.621 11.684 17.476 17.558z" fill="url(#SVGID_13_)"/><path d="m193.801 261.414c-25.471.014-46.138 20.503-45.833 45.76.324 25.254 21.259 46.053 46.433 46.27 25.179.205 45.567-20.428 45.564-45.9-.031-25.474-20.689-46.128-46.164-46.13z" fill="url(#SVGID_14_)"/><path d="m193.827 276.752c-16.977-.017-30.699 13.642-30.525 30.522.179 16.879 14.08 30.713 30.926 30.831 16.848.115 30.446-13.609 30.406-30.584-.05-16.976-13.828-30.746-30.807-30.769z" fill="url(#SVGID_15_)"/><path d="m201.734 322.805c-16.889-.086-30.767-13.897-30.884-30.791-.012-1.874.156-3.705.47-5.485-5.047 5.444-8.099 12.725-8.019 20.747.179 16.879 14.08 30.713 30.926 30.831 14.984.101 27.376-10.738 29.924-25.077-5.577 6.047-13.542 9.816-22.417 9.775z" fill="url(#SVGID_16_)"/><path d="m349.692 149.004c.176 8.445 7.122 15.364 15.544 15.472 8.421.107 15.083-6.603 14.839-15.004s-7.246-15.353-15.598-15.504c-8.353-.151-14.959 6.591-14.785 15.036z" fill="url(#SVGID_17_)"/><path d="m350.744 225.43c.051 8.445 6.951 15.301 15.441 15.316s15.348-6.781 15.279-15.182c-.07-8.401-7.026-15.267-15.496-15.326-8.47-.058-15.273 6.747-15.224 15.192z" fill="url(#SVGID_18_)"/><path d="m388.612 187.606c.16 8.398 7.122 15.265 15.591 15.348 8.468.082 15.211-6.604 15.007-14.943-.203-8.339-7.24-15.227-15.664-15.369-8.425-.141-15.092 6.566-14.934 14.964z" fill="url(#SVGID_19_)"/><path d="m312.117 186.958c.067 8.475 6.972 15.371 15.441 15.411 8.468.039 15.267-6.768 15.157-15.214-.11-8.447-7.052-15.363-15.477-15.432-8.424-.069-15.187 6.759-15.121 15.235z" fill="url(#SVGID_20_)"/><path d="m316.199 261.414c-25.475.002-46.133 20.656-46.164 46.13-.004 25.472 20.385 46.105 45.564 45.9 25.174-.217 46.11-21.016 46.433-46.27.304-25.257-20.363-45.745-45.833-45.76z" fill="url(#SVGID_21_)"/><path d="m316.173 276.752c-16.979.023-30.757 13.793-30.806 30.769-.04 16.975 13.558 30.699 30.406 30.584 16.846-.118 30.747-13.952 30.926-30.831.174-16.879-13.548-30.539-30.526-30.522z" fill="url(#SVGID_22_)"/><path d="m323.57 322.725c-16.891.107-30.52-13.611-30.483-30.581.005-1.881.188-3.719.516-5.508-5.089 5.487-8.21 12.824-8.236 20.886-.04 16.975 13.558 30.699 30.406 30.584 14.982-.102 27.614-11.061 30.368-25.346-5.664 6.068-13.697 9.912-22.571 9.965z" fill="url(#SVGID_23_)"/></g></svg>