<svg id="Capa_1" enable-background="new 0 0 512 512" height="512" viewBox="0 0 512 512" width="512" xmlns="http://www.w3.org/2000/svg"><g><path d="m165 422c-8.27 0-15-6.73-15-15 0-4.82 2.23-9.23 6.12-12.09 11.04-8.13 18.79-19.86 22.09-32.91h299.83l33.96-242h-376.81l-15.22-76.62c-.85-24.07-20.7-43.38-44.97-43.38h-75v30h75c8.27 0 15 6.73 15 15v1.48l59.98 301.89c-.21 8.81-4.52 17.13-11.64 22.38-11.48 8.45-18.34 22-18.34 36.25 0 24.81 20.19 45 45 45h315v-30zm255-272h57.5l-17.12 122h-40.38zm-90 0h60v122h-60zm-90 0h60v122h-60zm-98.85 0h68.85v122h-44.61z" fill="#11c9cc"/><path d="m315 422h165v30h-165z" fill="#819ffa"/><path d="m315 120v242h163.04l33.96-242zm75 152h-60v-122h60zm70.38 0h-40.38v-122h57.5z" fill="#819ffa"/><g><path d="m225 512c-24.813 0-45-20.187-45-45s20.187-45 45-45 45 20.187 45 45-20.187 45-45 45z" fill="#6c4c89"/><circle cx="225" cy="467" fill="#fff5f5" r="15"/></g><g><path d="m405 512c-24.813 0-45-20.187-45-45s20.187-45 45-45 45 20.187 45 45-20.187 45-45 45z" fill="#3c3967"/><circle cx="405" cy="467" fill="#efe2dd" r="15"/></g></g></svg>